<svg id="Capa_1" enable-background="new 0 0 512 512" height="512" viewBox="0 0 512 512" width="512" xmlns="http://www.w3.org/2000/svg"><g><g><path d="m142.172 98.813v-46.376h109.691c5.575 0 10.584 3.403 12.638 8.585l14.979 37.79-65.046 30.364z" fill="#8ac9fe"/><path d="m279.479 98.808h-21.349l-14.98-37.79c-2.058-5.175-7.068-8.581-12.645-8.581h21.359c5.576 0 10.587 3.405 12.634 8.581z" fill="#60b7ff"/><path d="m377.855 98.813h-198.311c-5.575 0-10.584-3.403-12.638-8.585l-11.576-29.205c-2.054-5.182-7.064-8.585-12.638-8.585h-96.097c-7.508-.001-13.595 6.086-13.595 13.594v19.186c0 7.508-6.087 13.595-13.595 13.595h-1.254c-10.025 0-18.151 8.126-18.151 18.15v278.417c0 16.787 13.609 30.396 30.396 30.396h365.61v-308.813c-.001-10.024-8.127-18.15-18.151-18.15z" fill="#fef0ae"/><g fill="#fee97d"><path d="m396.006 140.497v285.279h-365.612c-3.93 0-7.675-.741-11.122-2.109 6.976-2.819 12.233-8.478 15.896-16.729 1.595-3.601 2.665-7.408 3.354-11.286 0 0 42.244-237.269 42.459-239.124 1.047-9.032 8.712-16.031 18.027-16.031z"/><path d="m179.547 98.808h-20.577c-5.576 0-10.587-3.395-12.645-8.581l-11.575-29.209c-2.047-5.175-7.058-8.581-12.634-8.581h20.577c5.576 0 10.587 3.405 12.634 8.581l11.575 29.209c2.058 5.186 7.068 8.581 12.645 8.581z"/><path d="m396.006 116.967v308.809h-20.577v-308.809c0-10.031-8.128-18.159-18.149-18.159h20.577c10.021 0 18.149 8.128 18.149 18.159z"/></g><path d="m121.689 140.492h338.196c10.024 0 18.151 8.126 18.151 18.151l-42.74 248.983c0 10.024-8.126 18.151-18.151 18.151h-356.348-30.398c13.204 0 22.287-6.745 27.721-19.468 1.456-3.41 2.436-7.006 3.088-10.656l41.717-233.575c.328-1.838.52-3.696.735-5.551 1.048-9.028 8.72-16.035 18.029-16.035z" fill="#fee45a"/><path d="m478.036 158.646-42.738 248.981c0 10.021-8.128 18.149-18.149 18.149h-21.05c10.021 0 18.149-8.128 18.149-18.149l42.738-248.981c0-10.031-8.128-18.149-18.149-18.149h21.05c10.021 0 18.149 8.117 18.149 18.149z" fill="#fed402"/><g><path d="m189.176 355.306h-63.649c-4.142 0-7.5-3.358-7.5-7.5s3.358-7.5 7.5-7.5h63.649c4.142 0 7.5 3.358 7.5 7.5s-3.358 7.5-7.5 7.5z" fill="#fac600"/></g><g><path d="m214.435 385.906h-101.254c-4.142 0-7.5-3.358-7.5-7.5s3.358-7.5 7.5-7.5h101.254c4.142 0 7.5 3.358 7.5 7.5s-3.358 7.5-7.5 7.5z" fill="#fac600"/></g></g><g><path d="m484.732 257.143c-12.696-13.372-25.441-21.51-25.978-21.85-4.675-2.963-10.594-3.145-15.446-.478-4.851 2.669-7.865 7.767-7.865 13.303v106.583c-14.872-6.178-33.209-6.402-50.596.811-31.623 13.12-48.101 45.831-36.803 73.063 11.298 27.231 46.092 38.671 77.716 25.55 26.858-11.143 39.402-30.452 40.05-60.463v-112.208c8.388 9.584 15.823 21.732 15.823 34.684 0 8.385 6.798 15.183 15.183 15.183s15.184-6.798 15.184-15.184c0-19.806-9.429-40.206-27.268-58.994z" fill="#ee6161"/></g><g fill="#e94444"><path d="m465.812 303.178v90.48c-.648 30.011-13.19 49.323-40.053 60.465-11.749 4.877-23.941 6.358-35.197 4.897 6.111-.761 12.305-2.377 18.386-4.897 26.863-11.143 39.405-30.454 40.053-60.465v-117.958c0-4.225 5.531-5.85 7.795-2.283 4.707 7.411 8.379 28.084 9.016 29.761z"/><path d="m511.997 316.134c0 8.385-6.79 15.186-15.186 15.186-3.117 0-5.998-.936-8.406-2.541 4.085-2.716 6.78-7.366 6.78-12.645 0-19.805-9.424-40.207-27.264-58.994-11.832-12.449-23.705-20.371-25.701-21.657.35-.237.72-.463 1.091-.669 4.846-2.665 10.772-2.479 15.443.484.535.34 13.282 8.478 25.978 21.842 17.841 18.787 27.265 39.189 27.265 58.994z"/></g></g></svg>